<?xml version="1.0" encoding="iso-8859-1"?>
<!-- Generator: Adobe Illustrator 18.1.1, SVG Export Plug-In . SVG Version: 6.00 Build 0)  -->
<svg version="1.1" xmlns="http://www.w3.org/2000/svg" xmlns:xlink="http://www.w3.org/1999/xlink" x="0px" y="0px"
	 viewBox="0 0 1280 800" style="enable-background:new 0 0 1280 800;" xml:space="preserve">
<g id="about_bluemango">
	<rect x="237.551" y="243.939" style="opacity:0.9;fill:#FFFFFF;" width="804.897" height="312.121"/>
	<g>
		<g>
			<g>
				<g>
					<path style="fill:#494949;" d="M393.104,412.194c-4.538,5.139-10.529,7.789-18.06,7.789
						c-15.126,0.005-24.557-10.778-24.557-23.588c0-6.328-0.006-40.935-0.006-40.935h6.327v25.244
						c1.462-3.071,3.853-5.469,7.194-7.271c3.246-1.716,6.755-2.559,10.52-2.649c6.937,0,12.929,2.388,17.971,7.175
						c4.972,4.702,7.451,10.447,7.451,17.207C399.944,401.407,397.63,407.142,393.104,412.194z M388.128,382.248
						c-3.583-3.518-8.042-5.233-13.43-5.138c-5.051,0-9.411,1.796-12.927,5.388c-3.589,3.679-5.381,8.129-5.381,13.267
						c0,5.048,1.797,9.328,5.476,12.916c3.595,3.427,8.037,5.139,13.264,5.139c5.138,0,9.5-1.801,13.089-5.405
						c3.593-3.577,5.397-7.953,5.397-13.076C393.616,390.111,391.812,385.75,388.128,382.248z"/>
					<path style="fill:#494949;" d="M409.017,418.784l-0.008-63.33h6.33l0.006,63.33H409.017z"/>
					<path style="fill:#494949;" d="M461.389,418.777v-7.371c-2.908,5.654-8.047,8.481-15.397,8.481
						c-6.077,0-11.56-2.827-16.523-8.38c-2.231-2.49-3.34-7.457-3.34-14.809l-0.006-24.819h6.334l0.006,24.819
						c0,3.082,0.171,5.219,0.514,6.423c0.344,1.445,1.374,3.599,3.076,6.407c1.637,2.836,5.228,4.281,10.705,4.281
						c4.191,0,7.613-1.375,10.182-4.105c1.791-1.887,2.906-4.115,3.421-6.583c0.426-1.896,0.682-4.034,0.682-6.423l-0.008-24.823
						h6.426v46.901H461.389z"/>
					<path style="fill:#494949;" d="M482.869,397.628c0,4.291,1.792,8.053,5.389,11.304c3.596,3.248,7.7,4.879,12.324,4.879
						c3.511-0.007,6.843-0.954,9.926-2.74c3.155-1.891,5.475-4.366,6.842-7.547h6.592c-1.621,4.722-4.617,8.655-8.898,11.732
						c-4.277,3.074-8.897,4.632-13.948,4.711c-6.846,0-12.669-2.397-17.369-7.191c-4.799-4.706-7.193-10.522-7.193-17.366
						c0-6.764,2.386-12.579,7.186-17.371c4.707-4.797,10.44-7.196,17.2-7.196c7.182,0,13.083,2.473,17.626,7.357
						c4.535,4.967,6.768,11.466,6.768,19.423L482.869,397.628z M519.061,391.883c-0.86-4.185-2.995-7.687-6.504-10.603
						c-3.422-2.825-7.268-4.276-11.548-4.19c-4.463,0-8.391,1.365-11.813,4.029c-3.427,2.815-5.564,6.418-6.334,10.778l36.11-0.015
						H519.061z"/>
				</g>
				<g>
					<path style="fill:#494949;" d="M705.924,456.796l-0.007-21.088h2.11v21.088H705.924z"/>
					<path style="fill:#494949;" d="M732.101,456.786l-12.56-18.552v18.552h-2.111v-21.078h2.848l11.823,17.496v-17.502h2.11v21.084
						H732.101z"/>
					<path style="fill:#494949;" d="M748.605,437.607v19.179h-2.108v-19.179h-4.849v-1.905h11.743v1.905H748.605z"/>
					<path style="fill:#494949;" d="M760.834,456.776l-0.013-21.075l11.526-0.01v1.915h-9.413l0.007,7.609h9.095v1.91h-9.095v7.748
						h9.407v1.902H760.834z"/>
					<path style="fill:#494949;" d="M795.508,442.59c0,1.737-0.628,3.217-1.881,4.451c-1.229,1.241-2.676,1.878-4.384,1.878
						l5.953,7.857h-2.648l-7.155-9.536l1.23,0.013c1.82,0,3.248-0.251,4.301-0.728c0.684-0.327,1.253-0.865,1.739-1.656
						c0.487-0.764,0.709-1.597,0.709-2.534c0-1.571-0.656-2.831-2.003-3.762c-0.905-0.666-2.5-0.976-4.745-0.976h-3.341
						l0.008,19.179h-2.108l-0.008-21.085h5.016c1.623,0,2.769,0.056,3.449,0.176c0.914,0.147,1.827,0.447,2.733,0.932
						c0.948,0.542,1.685,1.349,2.251,2.394c0.567,1.032,0.857,2.168,0.857,3.396H795.508z"/>
					<path style="fill:#494949;" d="M819.932,456.776l-3.052-7.06h-9.828l-3.052,7.06h-2.278l9.092-21.085h2.335l9.059,21.085
						H819.932z M811.976,438.113l-4.102,9.692h8.189L811.976,438.113z"/>
					<path style="fill:#494949;" d="M845.524,455.516c-1.768,1.079-3.649,1.631-5.645,1.631c-3.109,0-5.733-1.053-7.867-3.161
						c-2.139-2.111-3.194-4.707-3.194-7.813c0-2.991,1.055-5.555,3.194-7.668c2.134-2.105,4.704-3.163,7.691-3.163
						c2.077,0,4.04,0.516,5.898,1.569c1.94,1.104,3.217,2.508,3.853,4.193h-2.312c-0.771-1.172-1.826-2.087-3.138-2.74
						c-1.339-0.656-2.764-0.996-4.275-0.996c-2.364,0-4.44,0.882-6.151,2.652c-1.763,1.757-2.648,3.814-2.648,6.152
						c0,2.423,0.885,4.533,2.648,6.299c1.771,1.76,3.873,2.648,6.301,2.648c1.42,0,2.786-0.336,4.105-1.06
						c1.308-0.681,2.387-1.621,3.212-2.791h2.338C848.622,453.044,847.291,454.461,845.524,455.516z"/>
					<path style="fill:#494949;" d="M863.017,437.594v19.166h-2.108v-19.166h-4.856v-1.905h11.751v1.905H863.017z"/>
					<path style="fill:#494949;" d="M875.24,456.76l-0.005-21.078h2.108l0.01,21.078H875.24z"/>
					<path style="fill:#494949;" d="M895.557,456.76h-1.994l-8.695-21.078h2.304l7.393,18.454l7.457-18.454h2.302L895.557,456.76z"
						/>
					<path style="fill:#494949;" d="M911.861,456.76l-0.01-21.078h11.518v1.905h-9.407v7.606h9.095v1.914h-9.095l0.007,7.746h9.4
						v1.907H911.861z"/>
				</g>
			</g>
			<path style="fill:#494949;" d="M871.008,390.693l-5.096,6.759l-3.111-22.103l22.102-3.121l-5.565,7.386l38.713,29.138
				c7.081-6.985,11.469-16.664,11.469-27.386c0-21.271-17.241-38.512-38.503-38.512c-5.498,0-10.698,1.164-15.422,3.232
				l32.325,24.336l3.639-4.827l2.23,15.771l-15.776,2.217l3.969-5.258l-35.452-26.686c-8.572,7.06-14.026,17.748-14.026,29.726
				c0,21.253,17.239,38.496,38.512,38.496c5.246,0,10.247-1.055,14.813-2.96L871.008,390.693z"/>
			<path style="fill:none;" d="M852.505,381.365c0-21.271,17.239-38.512,38.512-38.512c21.262,0,38.503,17.242,38.503,38.512
				c0,21.253-17.241,38.496-38.503,38.496C869.744,419.861,852.505,402.619,852.505,381.365z"/>
		</g>
		<path style="fill:#F7323F;" d="M597.278,419.639v-26.096c0-2.654-0.086-4.536-0.343-5.816c-0.433-1.705-1.543-3.772-3.333-6.261
			c-1.719-2.39-4.8-3.594-9.338-3.583c-3.847,0-6.841,1.204-8.978,3.598c-1.629,1.705-2.575,3.769-2.825,5.986
			c-0.267,1.706-0.421,3.769-0.421,6.077v26.108h-6.424l0.088-26.794c0-2.384-0.175-4.1-0.434-5.049
			c-0.43-1.626-1.537-3.683-3.17-6.152c-1.703-2.494-4.786-3.774-9.234-3.693c-4.881,0.015-8.472,1.892-10.705,5.65
			c-1.195,1.976-1.796,5.058-1.79,9.252v26.761h-6.329l-0.006-46.867h5.989l-0.089,6.157c2.314-4.792,6.499-7.196,12.496-7.266
			c6.246-0.01,11.723,2.127,15.234,7.261l1.201,1.802l1.015-1.888c1.547-2.132,3.683-3.849,6.337-5.138
			c2.744-1.279,5.561-1.967,8.478-1.967c4.536,0,8.633,1.616,12.316,4.877c2.996,2.65,4.882,5.395,5.743,8.205
			c0.593,2.233,0.856,4.967,0.856,8.143l0.008,26.694H597.278z"/>
		<path style="fill:#F7323F;" d="M656.157,419.636v-8.912c-1.713,3.181-4.195,5.654-7.454,7.455
			c-3.243,1.701-6.835,2.565-10.777,2.655c-3.517,0-7.098-0.852-10.695-2.484c-3.597-1.621-6.415-3.594-8.465-5.906
			c-4.038-4.531-6.086-10.011-6.086-16.514c-0.007-6.242,2.311-11.722,6.84-16.519c4.877-5.128,10.954-7.697,18.15-7.697
			c10.762,0,24.554,5.957,24.554,24.492c0,5.464,0,23.428,0,23.428H656.157z M656.157,396.609c0-5.218-1.801-9.67-5.308-13.348
			c-3.511-3.582-7.878-5.394-13.177-5.298c-5.14,0-9.5,1.797-13.1,5.475c-3.676,3.598-5.563,7.958-5.563,13.011
			c0,5.047,1.888,9.328,5.654,12.911c3.764,3.514,8.221,5.313,13.263,5.313c4.882,0,9.155-1.811,12.84-5.473
			c3.589-3.599,5.39-7.789,5.39-12.68V396.609z"/>
		<path style="fill:#F7323F;" d="M708.1,419.63l-0.006-24.656c0-3.161-0.252-5.47-0.683-7.005c-0.521-1.54-1.718-3.604-3.509-6.247
			c-1.886-2.569-5.396-3.859-10.52-3.773c-4.889,0-8.646,1.806-11.298,5.313c-1.806,2.394-2.746,6.328-2.74,11.718v24.657h-6.335
			v-46.902H679l-0.087,6.844c3.682-5.218,8.551-7.868,14.72-7.868c6.758,0,12.148,2.474,16.258,7.442
			c3.081,3.848,4.627,9.148,4.627,15.821l0.003,24.656H708.1z"/>
		<path style="fill:#F7323F;" d="M823.024,413.379c-4.784,4.866-10.525,7.346-17.205,7.436c-6.755,0-12.576-2.394-17.362-7.099
			c-4.794-4.709-7.192-10.437-7.192-17.122c-0.012-6.839,2.392-12.75,7.184-17.633c4.704-4.867,10.53-7.265,17.37-7.265
			c6.495,0,12.245,2.389,17.125,7.265c4.866,4.803,7.274,10.443,7.274,16.946C830.218,402.655,827.81,408.491,823.024,413.379z
			 M818.575,383.237c-3.6-3.592-7.881-5.389-12.756-5.389c-5.138,0-9.5,1.807-12.92,5.389c-3.511,3.603-5.303,8.058-5.392,13.272
			c0,5.048,1.806,9.324,5.477,12.841c3.517,3.503,7.798,5.299,12.835,5.218c5.057,0,9.336-1.803,12.847-5.395
			c3.507-3.684,5.212-8.128,5.212-13.266C823.878,391.114,822.085,386.929,818.575,383.237z"/>
		<path style="fill:#F7323F;" d="M751.115,392.625l-0.029,5.831l14.045-0.035c-0.474,4.089-2.159,7.687-5.08,10.763
			c-3.506,3.592-7.789,5.392-12.839,5.392c-5.049,0.088-9.328-1.713-12.831-5.225c-3.687-3.497-5.476-7.793-5.476-12.835
			c0.08-5.214,1.871-9.669,5.386-13.262c3.414-3.594,7.789-5.39,12.921-5.395c4.88,0,9.155,1.797,12.752,5.395
			c1.014,1.063,1.837,2.182,2.568,3.351h7.132c-1.195-2.75-2.96-5.304-5.341-7.627c-4.876-4.882-10.607-7.276-17.112-7.276
			c-6.856,0-12.669,2.394-17.368,7.276c-4.8,4.877-7.18,10.778-7.18,17.633c0,6.672,2.387,12.397,7.188,17.106
			c4.792,4.711,10.605,7.114,17.36,7.099c6.68-0.085,12.406-2.564,17.208-7.436c4.794-4.884,7.179-10.708,7.179-17.457
			c0-1.14-0.095-2.229-0.243-3.298H751.115z"/>
		<g>
			<path style="fill:#F7323F;" d="M832.943,357.62c0.792,0,1.541,0.146,2.23,0.437c0.707,0.296,1.326,0.723,1.888,1.285
				c0.54,0.542,0.94,1.15,1.229,1.866c0.286,0.687,0.428,1.435,0.428,2.203c0,0.788-0.142,1.53-0.428,2.233
				c-0.289,0.687-0.719,1.31-1.272,1.848c-0.55,0.546-1.181,0.967-1.884,1.264c-0.71,0.296-1.435,0.442-2.191,0.442
				c-0.753,0-1.475-0.146-2.177-0.442c-0.704-0.312-1.326-0.732-1.869-1.295c-0.554-0.547-0.965-1.169-1.247-1.856
				c-0.292-0.703-0.439-1.436-0.439-2.194c0-0.647,0.103-1.279,0.317-1.876c0.206-0.633,0.5-1.195,0.914-1.701
				c0.555-0.713,1.223-1.264,1.987-1.646C831.198,357.817,832.044,357.641,832.943,357.62z M832.965,358.369
				c-0.674,0-1.311,0.13-1.907,0.366c-0.603,0.255-1.136,0.622-1.608,1.079c-0.47,0.501-0.839,1.053-1.105,1.68
				c-0.255,0.628-0.389,1.27-0.389,1.922c0,0.657,0.134,1.295,0.377,1.897c0.271,0.617,0.622,1.154,1.094,1.631
				c0.467,0.476,1.003,0.843,1.616,1.104c0.611,0.265,1.247,0.395,1.888,0.395c0.679,0,1.326-0.134,1.933-0.395
				c0.624-0.242,1.176-0.603,1.656-1.084c0.46-0.467,0.813-0.998,1.082-1.601c0.25-0.592,0.38-1.239,0.38-1.897
				c0-0.701-0.116-1.354-0.367-1.966c-0.25-0.607-0.602-1.16-1.061-1.632c-0.488-0.487-1.029-0.857-1.641-1.108
				C834.31,358.505,833.654,358.369,832.965,358.369z M830.847,359.989h2.044c0.898,0,1.574,0.151,2.021,0.461
				c0.459,0.302,0.689,0.773,0.689,1.365c0,0.487-0.137,0.884-0.393,1.195c-0.256,0.321-0.614,0.526-1.083,0.602l1.44,2.98h-1.122
				l-1.326-2.855h-1.241v2.855h-1.03V359.989z M831.877,360.918v2.127l1.042-0.005c0.606,0,1.025-0.085,1.275-0.251
				c0.256-0.14,0.39-0.411,0.39-0.767c0-0.392-0.141-0.668-0.41-0.843c-0.265-0.176-0.697-0.26-1.283-0.26H831.877z"/>
		</g>
	</g>
</g>
<g id="Layer_1">
</g>
</svg>
