<?xml version="1.0" encoding="utf-8"?>
<!-- Generator: Adobe Illustrator 18.1.1, SVG Export Plug-In . SVG Version: 6.00 Build 0)  -->
<svg version="1.1" id="Layer_1" xmlns="http://www.w3.org/2000/svg" xmlns:xlink="http://www.w3.org/1999/xlink" x="0px" y="0px"
	 viewBox="0 0 740.2 212.2" enable-background="new 0 0 740.2 212.2" xml:space="preserve">
<path fill="#F1F1F2" d="M226.9,117.5c4.3,3.4,9.7,5.9,14.1,5.9c4.8,0,6.9-1.6,6.9-4.3c0-2.9-3.1-3.8-8.2-5.9l-7.5-3.2
	c-6.5-2.6-12.2-8.1-12.2-16.8c0-10.3,9.3-18.8,22.5-18.8c6.9,0,14.5,2.6,20.1,8.1l-8,10c-4.1-2.9-7.6-4.4-12.1-4.4
	c-3.9,0-6.3,1.4-6.3,4.1c0,2.9,3.4,3.9,8.9,6l7.4,2.9c7.5,3,11.8,8.2,11.8,16.6c0,10.2-8.6,19.4-23.6,19.4c-7.6,0-16.4-2.8-22.9-8.7
	L226.9,117.5z"/>
<path fill="#F1F1F2" d="M269.5,75.5H293c13,0,24.2,4.8,24.2,20.1c0,14.8-11.5,21.2-24.2,21.2h-7.4V136h-16V75.5z M292.2,104.2
	c6.3,0,9.3-3.2,9.3-8.6s-3.3-7.4-9.3-7.4h-6.7v16H292.2z"/>
<path fill="#F1F1F2" d="M396.1,123.2h-16.9l-3,12.8h-16.4l18.4-60.5h19.4L416,136h-16.9L396.1,123.2z M393.2,110.8l-1-4.2
	c-1.5-5.8-3-13.1-4.5-19.2h-0.4c-1.3,6.1-2.8,13.4-4.3,19.2l-1,4.2H393.2z"/>
<polygon fill="#F1F1F2" points="337.6,122.6 337.6,75.5 321.6,75.5 321.6,136 353.8,136 357.9,122.6 "/>
<g>
	<rect x="463.8" y="75.1" fill="#E13C26" width="18.5" height="18.5"/>
</g>
<g opacity="0.15">
	<rect x="485.3" y="75.1" fill="#FFFFFF" width="18.5" height="18.5"/>
</g>
<g>
	<rect x="506.7" y="118" fill="#DC9027" width="18.5" height="18.5"/>
</g>
<g>
	<rect x="463.8" y="96.6" fill="#B0CB35" width="39.9" height="18.5"/>
</g>
<g>
	<rect x="463.8" y="118" fill="#168CCC" width="18.5" height="18.5"/>
</g>
<g opacity="0.15">
	<rect x="485.3" y="118" fill="#FFFFFF" width="18.5" height="18.5"/>
</g>
<g>
	<rect x="506.7" y="75.1" fill="#DC2479" width="18.5" height="39.9"/>
</g>
<path fill="#F1F1F2" d="M447.3,101.2l-7.4-2.9c-5.5-2.1-8.9-3.2-8.9-6c0-2.7,2.4-4.1,6.3-4.1c4.5,0,8,1.5,12.1,4.4l8-10
	c-5.6-5.5-13.2-8.1-20.1-8.1c-13.2,0-22.5,8.5-22.5,18.8c0,8.7,5.7,14.2,12.2,16.8l7.5,3.2c5.1,2,8.2,3,8.2,5.9c0,2.7-2,4.3-6.9,4.3
	c-4.5,0-9.9-2.4-14.1-5.9l-4,4.8l3.6,11.7c4.7,2.1,9.7,3.1,14.2,3.1c15.1,0,23.6-9.1,23.6-19.4C459.2,109.4,454.9,104.2,447.3,101.2
	z"/>
</svg>
